<mxfile host="app.diagrams.net" modified="2024-07-11T08:35:49.867Z" agent="Mozilla/5.0 (Macintosh; Intel Mac OS X 10_15_7) AppleWebKit/537.36 (KHTML, like Gecko) Chrome/126.0.0.0 Safari/537.36 Edg/126.0.0.0" version="24.6.4" etag="EEiJQdPMKeOm6ICTeUb1" type="github">
  <diagram name="Page-1" id="mww1je_mYmX18j7z7Ojr">
    <mxGraphModel>
      <root>
        <mxCell id="0" />
        <mxCell id="1" parent="0" />
      </root>
    </mxGraphModel>
  </diagram>
</mxfile>
